<?xml version="1.0" encoding="UTF-8"?>
<!DOCTYPE svg PUBLIC "-//W3C//DTD SVG 1.1//EN" "http://www.w3.org/Graphics/SVG/1.1/DTD/svg11.dtd">
<!-- Creator: CorelDRAW 2021 (64-Bit) -->
<svg xmlns="http://www.w3.org/2000/svg" xml:space="preserve" width="10.8372mm" height="10.8372mm" version="1.1" shape-rendering="geometricPrecision" text-rendering="geometricPrecision" image-rendering="optimizeQuality" fill-rule="evenodd" clip-rule="evenodd"
viewBox="0 0 1083.72 1083.72"
 xmlns:xlink="http://www.w3.org/1999/xlink"
 xmlns:xodm="http://www.corel.com/coreldraw/odm/2003">
 <g id="Capa_x0020_1">
  <metadata id="CorelCorpID_0Corel-Layer"/>
  <g id="_2183486801728">
   <path fill="white" d="M541.83 813.49c-3.53,0.71 -7.19,0.24 -10.67,-1.42 -114.83,-54.91 -229.63,-109.89 -344.49,-164.75 -25.68,-12.26 -24.52,-48.78 -0.17,-60.74 17.61,-8.65 35.29,-17.18 52.9,-25.83 22.5,-11.05 40.08,-3.4 60.81,6.5 80.57,38.47 161.08,77.03 241.62,115.55 80.54,-38.52 161.05,-77.08 241.62,-115.55 20.73,-9.9 38.31,-17.55 60.81,-6.5 17.61,8.65 35.29,17.18 52.9,25.83 24.35,11.96 25.51,48.48 -0.17,60.74 -114.86,54.86 -229.66,109.84 -344.49,164.75 -3.48,1.66 -7.14,2.13 -10.67,1.42zm0 -202.65c-3.53,0.71 -7.19,0.24 -10.67,-1.42 -114.83,-54.92 -229.63,-109.89 -344.49,-164.75 -25.68,-12.26 -24.52,-48.78 -0.17,-60.74 17.62,-8.65 35.29,-17.19 52.9,-25.84 22.5,-11.05 40.08,-3.39 60.81,6.51 80.57,38.47 161.08,77.03 241.62,115.55 80.54,-38.52 161.05,-77.08 241.62,-115.55 20.73,-9.9 38.31,-17.56 60.81,-6.51 17.61,8.65 35.28,17.19 52.9,25.84 24.35,11.96 25.51,48.48 -0.17,60.74 -114.86,54.86 -229.66,109.83 -344.49,164.75 -3.48,1.66 -7.14,2.13 -10.67,1.42zm0 -593.86c1.07,-0.2 2.19,-0.29 3.34,-0.29 10.11,0.05 20.95,1.68 30.09,6.18l322.48 159.11c30.48,15.04 20.11,46.21 -6.67,59.43l-309.13 152.52c-10.9,5.37 -23.53,8.35 -35.64,9.21 -1.55,0.11 -3.04,0.03 -4.47,-0.23 -1.43,0.26 -2.92,0.34 -4.47,0.23 -12.11,-0.86 -24.74,-3.84 -35.64,-9.21l-309.13 -152.52c-26.78,-13.22 -37.15,-44.39 -6.67,-59.43l322.48 -159.11c9.14,-4.5 19.98,-6.13 30.09,-6.18 1.15,0 2.27,0.09 3.34,0.29zm175.83 914.35l0 -21.91c0,-11.76 8.73,-20.66 20.53,-20.66l19.02 0c11.77,0 20.32,9 20.32,20.66l0 14.35c5.9,0.2 11.64,1.56 16.97,4.16 5.48,2.68 10.24,6.35 14.22,10.97 3.88,4.52 6.79,9.7 8.85,15.28 2.15,5.83 3.17,11.99 3.17,18.2l0 44.18c0,6.09 -0.77,12.15 -2.52,17.99 -1.78,5.93 -4.59,11.47 -8.49,16.3 -4.04,5 -9.08,8.86 -14.89,11.61 -6.17,2.92 -12.87,4.17 -19.67,4.17 -5.92,0 -11.7,-1.09 -17.09,-3.45 -2.6,1.06 -5.41,1.56 -8.3,1.56l-11.59 0c-7.06,0 -13.05,-3.19 -16.7,-8.27 -3.5,2.67 -7.34,4.83 -11.47,6.5 -6.26,2.53 -12.89,3.66 -19.63,3.66 -6.69,0 -13.26,-1.15 -19.51,-3.55 -6.06,-2.32 -11.62,-5.63 -16.4,-10.03 -1.77,-1.63 -3.41,-3.37 -4.91,-5.22 -0.95,1.2 -1.95,2.35 -3.01,3.47 -4.88,5.12 -10.74,9 -17.26,11.69 -6.96,2.87 -14.42,4.05 -21.92,4.05 -8.28,0 -16.39,-1.73 -23.57,-5.98 -0.39,-0.23 -0.78,-0.46 -1.16,-0.7 -0.44,0.27 -0.88,0.54 -1.34,0.8 -7.16,4.13 -15.18,5.88 -23.41,5.88 -7.64,0 -15.23,-1.13 -22.36,-3.97 -5.3,-2.11 -10.18,-4.99 -14.5,-8.66 -1.01,1.85 -2.32,3.5 -3.89,4.87 -3.47,3.44 -8.57,5.46 -13.95,5.46l-12.02 0c-2.79,0 -5.52,-0.43 -8.08,-1.36 -5.11,2.17 -10.53,3.25 -16.11,3.25 -6.26,0 -12.42,-1.1 -18.23,-3.47 -4.04,-1.64 -7.74,-3.82 -11.06,-6.53 -3.68,5 -9.64,8.11 -16.63,8.11l-11.56 0c-2.92,0 -5.77,-0.53 -8.33,-1.57 -5.39,2.37 -11.16,3.46 -17.09,3.46 -6.79,0 -13.46,-1.25 -19.64,-4.14 -2.28,-1.06 -4.44,-2.3 -6.47,-3.71 -3.69,3.82 -8.84,5.96 -14.32,5.96l-60.56 0c-12.01,0 -20.63,-9.18 -20.63,-21.05l0 -133.78c0,-5.02 1.57,-9.87 4.76,-13.77 3.93,-4.81 9.68,-7.38 15.87,-7.38l60.09 0c11.86,0 20.02,9.4 20.02,20.97l0 17.43c0,0.46 -0.01,0.92 -0.04,1.38 0.64,-0.33 1.3,-0.65 1.96,-0.95 5.27,-2.4 10.89,-3.64 16.66,-3.82l0 -14.35c0,-4.82 1.45,-9.47 4.47,-13.27 3.9,-4.9 9.73,-7.39 15.92,-7.39l18.89 0c11.81,0 20.58,8.87 20.58,20.66l0 16.21 18.45 0c4.49,0 8.76,1.41 12.27,4.08 3.71,-2.62 7.99,-4.08 12.54,-4.08l18.34 0 0 -15.72c0,-4.73 1.43,-9.3 4.12,-12.88 3.55,-5.05 9.33,-8.27 15.8,-8.27l21.24 0c5.24,0 10.13,1.89 13.68,5.18 3.47,-3.23 8.09,-5.18 13.11,-5.18l21.34 0c5.22,0 10.1,1.92 13.69,5.35 3.68,-3.43 8.53,-5.35 13.71,-5.35l20.43 0c7.03,0 13.42,3.47 17.11,9.48 2.18,3.55 3.31,7.6 3.31,11.77l0 22.47c3.11,-2.04 6.43,-3.73 9.93,-5.1 6.26,-2.46 12.88,-3.63 19.6,-3.63 6.8,0 13.5,1.14 19.8,3.74 2.62,1.08 5.15,2.36 7.54,3.84zm-373.78 16.92c0.04,-0.08 0.08,-0.16 0.12,-0.23 -0.22,0 -0.44,0.01 -0.66,0.01 0.18,0.07 0.36,0.15 0.54,0.22zm-5.5 57.03c-0.88,0.11 -1.77,0.16 -2.66,0.16l-11.97 0 0 0.24 14.63 0 0 -0.4z"/>
  </g>
  <g id="_2183486801824">
   <g>
    <path fill="#478FD3" d="M538.57 386.01c-10.16,-0.72 -20.67,-3.23 -29.25,-7.48l-309.13 -152.52c-17.8,-8.79 -20.8,-21.66 -6.67,-28.63l322.48 -159.11c5.93,-2.92 13.94,-4.37 22.57,-4.41l0 352.15z"/>
    <path fill="#3671B8" d="M545.09 386.01c10.16,-0.72 20.67,-3.23 29.25,-7.48l309.13 -152.52c17.8,-8.79 20.8,-21.66 6.67,-28.63l-322.48 -159.11c-5.93,-2.92 -13.94,-4.37 -22.57,-4.41l0 352.15z"/>
   </g>
   <g>
    <path fill="#3671B8" d="M538.57 497.63c-84.85,-40.59 -160.54,-76.84 -245.76,-117.54 -16.38,-7.82 -29.49,-14.61 -45.84,-6.59 -19.7,9.68 -31.85,15.49 -52.9,25.84 -10.12,4.96 -14.04,23.13 0,29.84 119.05,56.85 226.7,108.41 344.5,164.75l0 -96.3z"/>
    <path fill="#3D5387" d="M545.09 497.63c84.85,-40.59 160.54,-76.84 245.76,-117.54 16.38,-7.82 29.49,-14.61 45.84,-6.59 19.7,9.68 31.85,15.49 52.9,25.84 10.12,4.96 14.04,23.13 0,29.84 -119.05,56.85 -226.7,108.41 -344.5,164.75l0 -96.3z"/>
   </g>
   <g>
    <path fill="#3671B8" d="M538.57 700.28c-84.85,-40.59 -160.54,-76.84 -245.76,-117.54 -16.38,-7.82 -29.49,-14.61 -45.84,-6.58 -19.7,9.67 -31.85,15.48 -52.9,25.83 -10.12,4.96 -14.04,23.13 0,29.84 119.05,56.85 226.7,108.42 344.5,164.75l0 -96.3z"/>
    <path fill="#3D5387" d="M545.09 700.28c84.85,-40.59 160.54,-76.84 245.76,-117.54 16.38,-7.82 29.49,-14.61 45.84,-6.58 19.7,9.67 31.85,15.48 52.9,25.83 10.12,4.96 14.04,23.13 0,29.84 -119.05,56.85 -226.7,108.42 -344.5,164.75l0 -96.3z"/>
   </g>
   <path fill="#3D5387" fill-rule="nonzero" d="M279.64 909.91c0,-1.22 0.31,-2.2 0.88,-2.9 0.6,-0.73 1.44,-1.08 2.58,-1.08l60.09 0c1.87,0 2.85,1.25 2.85,3.8l0 17.43c0,2.48 -0.98,3.7 -2.85,3.7l-36.61 0 0 32.9 29.14 0c0.94,0 1.68,0.28 2.31,0.8 0.63,0.56 0.94,1.47 0.94,2.76l0 17.5c0,1.22 -0.31,2.09 -0.91,2.65 -0.57,0.52 -1.37,0.8 -2.34,0.8l-29.14 0 0 34.58 37.08 0c0.86,0 1.57,0.27 2.11,0.87 0.57,0.59 0.84,1.47 0.84,2.62l0 17.63c0,1.23 -0.27,2.13 -0.84,2.73 -0.54,0.59 -1.25,0.87 -2.11,0.87l-60.56 0c-2.31,0 -3.46,-1.29 -3.46,-3.88l0 -133.78z"/>
   <path id="_1" fill="#3D5387" fill-rule="nonzero" d="M424.48 1044.18c0,2.27 -1.13,3.39 -3.41,3.39l-11.56 0c-1.1,0 -1.94,-0.24 -2.48,-0.73 -0.56,-0.46 -1.1,-1.61 -1.61,-3.36l-0.9 -4.01c-2.47,3.07 -5.43,5.48 -8.84,7.3 -3.42,1.78 -7.27,2.69 -11.59,2.69 -4.66,0 -8.78,-0.84 -12.36,-2.52 -3.58,-1.67 -6.56,-3.94 -8.94,-6.88 -2.42,-2.93 -4.19,-6.42 -5.43,-10.44 -1.21,-4.02 -1.81,-8.38 -1.81,-13.06l0 -44.18c0,-4.68 0.7,-8.97 2.11,-12.81 1.41,-3.84 3.35,-7.16 5.83,-9.92 2.44,-2.76 5.36,-4.89 8.74,-6.43 3.38,-1.53 7.04,-2.3 10.99,-2.3 2.74,0 5.43,0.45 8.07,1.33 2.61,0.87 5.19,2.09 7.67,3.66l0 -36.49c0,-1.08 0.24,-1.96 0.74,-2.58 0.47,-0.6 1.3,-0.91 2.48,-0.91l18.89 0c2.28,0 3.41,1.15 3.41,3.49l0 134.76zm-25.52 -71.62c0,-1.08 -0.2,-2.2 -0.64,-3.28 -0.43,-1.09 -1.03,-2.06 -1.81,-2.9 -0.73,-0.88 -1.67,-1.54 -2.77,-2.06 -1.07,-0.53 -2.31,-0.77 -3.72,-0.77 -2.78,0 -4.96,0.94 -6.56,2.83 -1.59,1.85 -2.38,3.94 -2.38,6.28l0 45.05c0,2.34 0.79,4.44 2.38,6.29 1.6,1.88 3.78,2.83 6.56,2.83 2.78,0 4.96,-0.95 6.56,-2.83 1.58,-1.85 2.38,-3.95 2.38,-6.29l0 -45.15z"/>
   <path id="_2" fill="#3D5387" fill-rule="nonzero" d="M463.21 1017.12c0,1.22 0.17,2.41 0.53,3.56 0.37,1.15 0.91,2.2 1.65,3.14 0.7,0.91 1.6,1.64 2.74,2.2 1.11,0.53 2.41,0.81 3.93,0.81 2.47,0 4.54,-0.95 6.19,-2.83 1.64,-1.85 2.51,-4.02 2.64,-6.5l0 -70.5c0,-1.51 0.44,-2.59 1.32,-3.22 0.9,-0.66 1.77,-0.98 2.7,-0.98l18.4 0c0.9,0 1.64,0.32 2.24,0.91 0.57,0.63 0.86,1.5 0.86,2.69l0 97.68c0,1.19 -0.29,2.06 -0.93,2.62 -0.6,0.59 -1.37,0.87 -2.28,0.87l-12.02 0c-1.24,0 -2.21,-0.21 -2.85,-0.66 -0.67,-0.46 -1.14,-1.3 -1.47,-2.52l-0.77 -3.11c-2.75,2.48 -5.73,4.44 -8.91,5.94 -3.21,1.5 -6.6,2.24 -10.19,2.24 -4.25,0 -8.17,-0.74 -11.76,-2.2 -3.61,-1.47 -6.69,-3.57 -9.27,-6.36 -2.58,-2.76 -4.59,-6.08 -6.06,-9.95 -1.48,-3.88 -2.21,-8.24 -2.21,-13.1l0 -71.55c0,-1.19 0.26,-2.06 0.83,-2.62 0.54,-0.6 1.28,-0.88 2.18,-0.88l19.4 0c0.9,0 1.64,0.28 2.24,0.88 0.57,0.56 0.87,1.43 0.87,2.62l0 70.82z"/>
   <path id="_3" fill="#3D5387" fill-rule="nonzero" d="M595.39 1012.75c0,1.64 0.23,3.22 0.7,4.68 0.44,1.47 1.14,2.76 2.04,3.95 0.9,1.15 2.04,2.06 3.35,2.76 1.31,0.66 2.85,1.01 4.62,1.01 1.68,0 3.23,-0.35 4.56,-1.01 1.34,-0.7 2.44,-1.61 3.32,-2.76 0.9,-1.19 1.57,-2.48 2,-3.95 0.47,-1.46 0.71,-3.04 0.71,-4.68l0 -102.74c0,-1.08 0.27,-2.02 0.84,-2.86 0.56,-0.8 1.37,-1.22 2.41,-1.22l20.43 0c1.11,0 1.94,0.42 2.48,1.29 0.51,0.84 0.77,1.78 0.77,2.79l0 104.35c0,4.89 -0.8,9.5 -2.44,13.79 -1.65,4.33 -4.02,8.11 -7.07,11.32 -3.09,3.25 -6.87,5.8 -11.36,7.65 -4.48,1.85 -9.61,2.75 -15.37,2.75 -5.83,0 -10.79,-1.18 -14.84,-3.59 -4.06,-2.38 -7.3,-5.62 -9.75,-9.75 -2.55,4.13 -5.89,7.37 -10.05,9.75 -4.15,2.41 -9.11,3.59 -14.84,3.59 -6.03,0 -11.35,-0.9 -16,-2.75 -4.63,-1.85 -8.55,-4.4 -11.76,-7.65 -3.22,-3.21 -5.63,-6.99 -7.28,-11.32 -1.64,-4.29 -2.44,-8.9 -2.44,-13.79l0 -104.45c0,-1.08 0.27,-2.03 0.84,-2.79 0.57,-0.81 1.2,-1.19 1.91,-1.19l21.24 0c1.17,0 1.97,0.38 2.34,1.19 0.4,0.76 0.6,1.71 0.6,2.79l0 102.84c0,1.64 0.23,3.22 0.74,4.68 0.47,1.47 1.17,2.76 2.11,3.95 0.9,1.15 1.98,2.06 3.25,2.76 1.27,0.66 2.71,1.01 4.36,1.01 1.71,0 3.21,-0.35 4.55,-1.01 1.34,-0.7 2.44,-1.61 3.35,-2.76 0.93,-1.19 1.6,-2.48 2.07,-3.95 0.44,-1.46 0.67,-3.04 0.67,-4.68l0 -102.84c0,-1.08 0.27,-2.03 0.84,-2.79 0.57,-0.81 1.21,-1.19 1.91,-1.19l21.34 0c1.1,0 1.88,0.38 2.24,1.19 0.41,0.76 0.61,1.71 0.61,2.79l0 102.84z"/>
   <path id="_4" fill="#3D5387" fill-rule="nonzero" d="M656.09 971.89c0,-4.29 0.9,-8.31 2.71,-12.08 1.77,-3.73 4.22,-7.02 7.3,-9.81 3.08,-2.79 6.69,-4.99 10.89,-6.64 4.18,-1.64 8.64,-2.44 13.33,-2.44 4.85,0 9.27,0.8 13.26,2.44 3.99,1.65 7.44,3.88 10.32,6.67 2.88,2.8 5.09,6.05 6.7,9.82 1.6,3.73 2.41,7.75 2.41,12.04l0 25.39c0,1.16 -0.37,2.06 -1.14,2.76 -0.73,0.67 -1.67,1.01 -2.78,1.01l-37.48 0 0 17.4c0,1.15 0.23,2.27 0.7,3.31 0.44,1.09 1.1,2.03 1.91,2.87 0.84,0.87 1.81,1.53 2.91,2.06 1.15,0.52 2.38,0.77 3.75,0.77 1.41,0 2.65,-0.28 3.79,-0.81 1.11,-0.56 2.08,-1.26 2.85,-2.13 0.8,-0.84 1.37,-1.81 1.78,-2.9 0.4,-1.11 0.6,-2.23 0.6,-3.38l0 -3.01c0,-0.59 0.19,-1.15 0.63,-1.67 0.44,-0.53 1.11,-0.77 2.01,-0.77l17.82 0c0.78,0 1.37,0.17 1.81,0.56 0.44,0.38 0.64,1.08 0.64,2.09l0 2.97c0,4.3 -0.77,8.31 -2.34,12.08 -1.58,3.81 -3.79,7.09 -6.64,9.92 -2.88,2.83 -6.26,5.03 -10.25,6.64 -3.95,1.6 -8.34,2.41 -13.19,2.41 -4.73,0 -9.18,-0.81 -13.37,-2.41 -4.19,-1.61 -7.84,-3.81 -10.92,-6.64 -3.08,-2.83 -5.53,-6.15 -7.3,-9.92 -1.81,-3.77 -2.71,-7.82 -2.71,-12.11l0 -46.49zm25.52 11.56l18.29 0 0 -11.28c0,-2.37 -0.8,-4.47 -2.42,-6.28 -1.64,-1.85 -3.81,-2.76 -6.6,-2.76 -1.37,0 -2.6,0.24 -3.75,0.77 -1.1,0.49 -2.07,1.15 -2.91,1.99 -0.81,0.8 -1.47,1.74 -1.91,2.83 -0.47,1.08 -0.7,2.2 -0.7,3.35l0 11.38z"/>
   <path id="_5" fill="#3D5387" fill-rule="nonzero" d="M734.83 909.42c0,-2.34 1.12,-3.49 3.36,-3.49l19.02 0c2.11,0 3.15,1.15 3.15,3.49l0 36.49c2.42,-1.57 4.96,-2.79 7.6,-3.66 2.65,-0.88 5.33,-1.33 8.08,-1.33 3.91,0 7.57,0.8 10.92,2.44 3.38,1.65 6.26,3.88 8.74,6.74 2.45,2.87 4.36,6.22 5.76,10.03 1.41,3.8 2.11,7.92 2.11,12.25l0 44.18c0,4.68 -0.6,9.04 -1.8,13.06 -1.21,4.02 -3.03,7.51 -5.4,10.44 -2.37,2.94 -5.33,5.21 -8.88,6.88 -3.52,1.68 -7.63,2.52 -12.32,2.52 -4.33,0 -8.21,-0.91 -11.63,-2.69 -3.45,-1.82 -6.39,-4.23 -8.87,-7.3l-0.78 4.01c-0.52,1.75 -1.06,2.9 -1.57,3.36 -0.54,0.49 -1.37,0.73 -2.54,0.73l-11.59 0c-2.24,0 -3.36,-1.12 -3.36,-3.39l0 -134.76zm25.53 108.29c0,1.15 0.2,2.31 0.64,3.39 0.43,1.08 1.04,2.06 1.8,2.9 0.78,0.87 1.71,1.53 2.79,2.06 1.07,0.52 2.28,0.77 3.58,0.77 2.72,0 4.9,-0.95 6.5,-2.83 1.57,-1.85 2.38,-3.95 2.38,-6.29l0 -45.05c0,-2.34 -0.81,-4.43 -2.38,-6.28 -1.6,-1.89 -3.78,-2.83 -6.5,-2.83 -1.37,0 -2.62,0.24 -3.68,0.77 -1.07,0.52 -1.98,1.18 -2.75,2.06 -0.73,0.84 -1.31,1.81 -1.74,2.9 -0.44,1.08 -0.64,2.2 -0.64,3.28l0 45.15z"/>
  </g>
 </g>
</svg>
